<?xml version="1.0" encoding="UTF-8"?>
<svg width="225px" height="76px" viewBox="0 0 225 76" version="1.1" xmlns="http://www.w3.org/2000/svg" xmlns:xlink="http://www.w3.org/1999/xlink">
    <!-- Generator: Sketch 59 (86127) - https://sketch.com -->
    <title>Effect_Network-logo_color</title>
    <desc>Created with Sketch.</desc>
    <g id="Pokaz" stroke="none" stroke-width="1" fill="none" fill-rule="evenodd">
        <g id="Effect_Network-logo_color" transform="translate(0.000074, 0.370900)">
            <path d="M174.036236,41.4285542 C179.91807,41.4285542 184.188279,45.8479059 184.188279,51.9360154 C184.188279,58.024125 179.91807,62.4434767 174.036236,62.4434767 C168.152918,62.4434767 163.882709,58.024125 163.882709,51.9360154 C163.882709,45.8479059 168.152918,41.4285542 174.036236,41.4285542 Z M86.4833587,41.783156 C86.5442027,41.783156 86.6020787,41.812836 86.6362106,41.86255 L86.6362106,41.86255 L94.9688701,53.9193071 C95.382906,54.5188431 96.320794,54.2257531 96.320794,53.4978511 L96.320794,53.4978511 L96.320794,41.9686559 C96.320794,41.86626 96.40464,41.783156 96.5062939,41.783156 L96.5062939,41.783156 L99.6583097,41.783156 C99.7614477,41.783156 99.8438097,41.86626 99.8438097,41.9686559 L99.8438097,41.9686559 L99.8438097,61.9039685 C99.8438097,62.0056225 99.7614477,62.0894685 99.6583097,62.0894685 L99.6583097,62.0894685 L96.38609,62.0894685 C96.325988,62.0894685 96.269596,62.0597885 96.234722,62.0100745 L96.234722,62.0100745 L86.5301047,48.2133275 C86.4254827,48.0641855 86.1924947,48.1383855 86.1924947,48.3194335 L86.1924947,48.3194335 L86.1924947,61.9039685 C86.1924947,62.0056225 86.1101327,62.0894685 86.0069947,62.0894685 L86.0069947,62.0894685 L82.8549789,62.0894685 C82.7525829,62.0894685 82.6694789,62.0056225 82.6694789,61.9039685 L82.6694789,61.9039685 L82.6694789,41.9686559 C82.6694789,41.86626 82.7525829,41.783156 82.8549789,41.783156 L82.8549789,41.783156 Z M118.63199,41.782414 C118.734386,41.782414 118.81749,41.86626 118.81749,41.9679139 L118.81749,41.9679139 L118.81749,45.0012097 C118.81749,45.1036057 118.734386,45.1867097 118.63199,45.1867097 L118.63199,45.1867097 L107.951643,45.1867097 C107.849247,45.1867097 107.766143,45.2705557 107.766143,45.3722097 L107.766143,45.3722097 L107.766143,49.4324334 C107.766143,49.8427594 108.098559,50.1744334 108.508143,50.1744334 L108.508143,50.1744334 L117.09605,50.1744334 C117.199188,50.1744334 117.28155,50.2575374 117.28155,50.3599334 L117.28155,50.3599334 L117.28155,53.4229091 C117.28155,53.5253051 117.199188,53.6084091 117.09605,53.6084091 L117.09605,53.6084091 L108.508143,53.6084091 C108.098559,53.6084091 107.766143,53.9400831 107.766143,54.3504091 L107.766143,54.3504091 L107.766143,58.4395708 C107.766143,58.5412248 107.849247,58.6250708 107.951643,58.6250708 L107.951643,58.6250708 L118.749968,58.6250708 C118.852364,58.6250708 118.935468,58.7081748 118.935468,58.8105708 L118.935468,58.8105708 L118.935468,61.9039685 C118.935468,62.0056225 118.852364,62.0894685 118.749968,62.0894685 L118.749968,62.0894685 L104.429369,62.0894685 C104.326973,62.0894685 104.243869,62.0056225 104.243869,61.9039685 L104.243869,61.9039685 L104.243869,41.9679139 C104.243869,41.86626 104.326973,41.782414 104.429369,41.782414 L104.429369,41.782414 Z M137.959902,41.782785 C138.06304,41.782785 138.145402,41.865889 138.145402,41.9682849 L138.145402,41.9682849 L138.145402,45.0609407 C138.145402,45.1633367 138.06304,45.2464407 137.959902,45.2464407 L137.959902,45.2464407 L131.357586,45.2464407 C131.25519,45.2464407 131.172086,45.3295447 131.172086,45.4319407 L131.172086,45.4319407 L131.172086,61.9035975 C131.172086,62.0059935 131.088982,62.0890975 130.986586,62.0890975 L130.986586,62.0890975 L127.835313,62.0890975 C127.732917,62.0890975 127.649813,62.0059935 127.649813,61.9035975 L127.649813,61.9035975 L127.649813,45.4319407 C127.649813,45.3295447 127.566709,45.2464407 127.464313,45.2464407 L127.464313,45.2464407 L120.801895,45.2464407 C120.699499,45.2464407 120.616395,45.1633367 120.616395,45.0609407 L120.616395,45.0609407 L120.616395,41.9682849 C120.616395,41.865889 120.699499,41.782785 120.801895,41.782785 L120.801895,41.782785 Z M143.780001,41.7824882 C143.874977,41.7824882 143.955113,41.8552042 143.964017,41.9509221 L143.964017,41.9509221 L145.102987,53.7976933 C145.123021,54.0017433 145.409433,54.0277133 145.465825,53.8318253 L145.465825,53.8318253 L148.876799,41.9761501 C148.899059,41.8974982 148.972517,41.8418482 149.054879,41.8418482 L149.054879,41.8418482 L152.144566,41.8418482 C152.22767,41.8418482 152.300386,41.8974982 152.323388,41.9761501 L152.323388,41.9761501 L155.744008,53.9141873 C155.8004,54.1108173 156.086812,54.0841053 156.106846,53.8815393 L156.106846,53.8815393 L157.29553,41.9501801 C157.305176,41.8552042 157.38457,41.7824882 157.480288,41.7824882 L157.480288,41.7824882 L160.759186,41.7824882 C160.869744,41.7824882 160.955816,41.8789482 160.943944,41.9895061 L160.943944,41.9895061 L158.673424,61.9248187 C158.663036,62.0183107 158.583642,62.0895427 158.489408,62.0895427 L158.489408,62.0895427 L154.638428,62.0895427 C154.554582,62.0895427 154.481866,62.0331507 154.459606,61.9537567 L154.459606,61.9537567 L150.96256,49.4161836 C150.86239,49.0577976 150.354121,49.0540876 150.249499,49.4117316 L150.249499,49.4117316 L146.558791,61.9559827 C146.535789,62.0346347 146.463073,62.0895427 146.381453,62.0895427 L146.381453,62.0895427 L142.529731,62.0895427 C142.434755,62.0895427 142.355361,62.0175687 142.344973,61.9233347 L142.344973,61.9233347 L140.260695,41.9880221 C140.248823,41.8782062 140.334153,41.7824882 140.444711,41.7824882 L140.444711,41.7824882 Z M196.998241,41.7826366 C200.87148,41.7826366 203.57607,44.3299224 203.57607,47.9768521 C203.57607,50.4440019 202.325058,52.4459178 200.187356,53.4728457 C200.093864,53.5181077 200.053796,53.6294077 200.102026,53.7214157 L200.102026,53.7214157 L204.323264,61.8181191 C204.387818,61.9412911 204.298036,62.0889491 204.15854,62.0889491 L204.15854,62.0889491 L200.319432,62.0889491 C200.250426,62.0889491 200.186614,62.0503651 200.154708,61.9880371 L200.154708,61.9880371 L196.238433,54.2719797 C196.207269,54.2096517 196.143457,54.1710677 196.073709,54.1710677 L196.073709,54.1710677 L191.705555,54.1710677 C191.603159,54.1710677 191.520055,54.2541717 191.520055,54.3565677 L191.520055,54.3565677 L191.520055,61.9034491 C191.520055,62.0058451 191.437693,62.0889491 191.334555,62.0889491 L191.334555,62.0889491 L188.182539,62.0889491 C188.080143,62.0889491 187.997039,62.0058451 187.997039,61.9034491 L187.997039,61.9034491 L187.997039,41.9681365 C187.997039,41.8664826 188.080143,41.7826366 188.182539,41.7826366 L188.182539,41.7826366 Z M210.544117,41.7826366 C210.647255,41.7826366 210.729617,41.8664826 210.729617,41.9681365 L210.729617,41.9681365 L210.729617,50.5137499 C210.729617,50.8565539 211.154783,51.0160839 211.380351,50.7578679 L211.380351,50.7578679 L219.152801,41.8464486 C219.187675,41.8056386 219.239615,41.7826366 219.293039,41.7826366 L219.293039,41.7826366 L223.449723,41.7826366 C223.609253,41.7826366 223.694583,41.9703625 223.589961,42.0898245 L223.589961,42.0898245 L216.382915,50.353478 C216.326523,50.4180319 216.321329,50.5130079 216.371043,50.5827559 L216.371043,50.5827559 L224.333444,61.7966011 C224.420258,61.9190311 224.332702,62.0889491 224.182076,62.0889491 L224.182076,62.0889491 L220.216829,62.0889491 C220.157469,62.0889491 220.101819,62.0600111 220.066945,62.0125231 L220.066945,62.0125231 L213.939509,53.5114297 C213.869019,53.4142277 213.728039,53.4075497 213.648645,53.4973317 L213.648645,53.4973317 L210.774879,56.7888435 C210.745941,56.8222335 210.729617,56.8652695 210.729617,56.9105315 L210.729617,56.9105315 L210.729617,61.9034491 C210.729617,62.0058451 210.647255,62.0889491 210.544117,62.0889491 L210.544117,62.0889491 L207.392102,62.0889491 C207.289706,62.0889491 207.206602,62.0058451 207.206602,61.9034491 L207.206602,61.9034491 L207.206602,41.9681365 C207.206602,41.8664826 207.289706,41.7826366 207.392102,41.7826366 L207.392102,41.7826366 Z M174.036236,44.9508279 C170.296556,44.9508279 167.58232,47.8884057 167.58232,51.9360154 C167.58232,55.9487512 170.296556,58.8618429 174.036236,58.8618429 C177.775174,58.8618429 180.488668,55.9487512 180.488668,51.9360154 C180.488668,47.8884057 177.775174,44.9508279 174.036236,44.9508279 Z M197.116219,45.2462923 L191.705555,45.2462923 C191.603159,45.2462923 191.520055,45.3301383 191.520055,45.4317923 L191.520055,45.4317923 L191.520055,50.02403 C191.520055,50.4336139 191.852471,50.7660299 192.262055,50.7660299 L192.262055,50.7660299 L196.998241,50.7660299 C198.79017,50.7660299 199.993694,49.668612 199.993694,48.0354701 C199.993694,46.4193942 198.783492,45.2462923 197.116219,45.2462923 L197.116219,45.2462923 Z" id="Combined-Shape" fill="#5158FA"></path>
            <path d="M161.288306,12.0509955 C165.039858,12.0509955 168.307625,14.1656953 169.648419,17.2702231 C169.701101,17.3933951 169.606867,17.5314071 169.473307,17.5314071 L169.473307,17.5314071 L165.536256,17.5314071 C165.31885,17.5314071 165.119252,17.4304951 164.97382,17.2679971 C164.043352,16.2240032 162.701074,15.5740112 161.228204,15.5740112 C157.711124,15.5740112 155.159386,18.498975 155.159386,22.5295187 C155.159386,26.4947664 157.819456,29.4857682 161.346924,29.4857682 C162.887316,29.4857682 164.237756,28.8654563 165.168224,27.8437224 C165.312914,27.6849344 165.511028,27.5862484 165.725466,27.5862484 L165.725466,27.5862484 L169.528957,27.5862484 C169.664001,27.5862484 169.758235,27.7272284 169.702585,27.8496584 C168.303915,30.9668001 165.082152,33.06666 161.346924,33.06666 C155.617942,33.06666 151.459033,28.6599223 151.459033,22.5888787 C151.459033,16.4829612 155.593456,12.0509955 161.288306,12.0509955 Z M97.1668965,12.4053004 C97.2692925,12.4053004 97.3523965,12.4891464 97.3523965,12.5908004 L97.3523965,12.5908004 L97.3523965,15.6240962 C97.3523965,15.7272342 97.2692925,15.8095962 97.1668965,15.8095962 L97.1668965,15.8095962 L86.4865493,15.8095962 C86.3841533,15.8095962 86.3010493,15.8934422 86.3010493,15.9950962 L86.3010493,15.9950962 L86.3010493,20.0560619 C86.3010493,20.4656459 86.6334652,20.7980619 87.0430492,20.7980619 L87.0430492,20.7980619 L95.6302146,20.7980619 C95.7333526,20.7980619 95.8157146,20.8811658 95.8157146,20.9835618 L95.8157146,20.9835618 L95.8157146,24.0457956 C95.8157146,24.1481916 95.7333526,24.2312956 95.6302146,24.2312956 L95.6302146,24.2312956 L87.0430492,24.2312956 C86.6334652,24.2312956 86.3010493,24.5629696 86.3010493,24.9732956 L86.3010493,24.9732956 L86.3010493,29.0639413 C86.3010493,29.1663373 86.3841533,29.2494413 86.4865493,29.2494413 L86.4865493,29.2494413 L97.2848745,29.2494413 C97.3872705,29.2494413 97.4703745,29.3325452 97.4703745,29.4349412 L97.4703745,29.4349412 L97.4703745,32.526855 C97.4703745,32.628509 97.3872705,32.712355 97.2848745,32.712355 L97.2848745,32.712355 L82.9635335,32.712355 C82.8611375,32.712355 82.7780335,32.628509 82.7780335,32.526855 L82.7780335,32.526855 L82.7780335,12.5908004 C82.7780335,12.4891464 82.8611375,12.4053004 82.9635335,12.4053004 L82.9635335,12.4053004 Z M114.485546,12.4058198 C114.588684,12.4058198 114.671046,12.4889238 114.671046,12.5913198 L114.671046,12.5913198 L114.671046,15.6246156 C114.671046,15.7270116 114.588684,15.8101156 114.485546,15.8101156 L114.485546,15.8101156 L104.277111,15.8101156 C104.174715,15.8101156 104.091611,15.8932196 104.091611,15.9956156 L104.091611,15.9956156 L104.091611,20.4988133 C104.091611,20.9091392 104.424027,21.2408132 104.833611,21.2408132 L104.833611,21.2408132 L113.185562,21.2408132 C113.2887,21.2408132 113.371062,21.3239172 113.371062,21.4263132 L113.371062,21.4263132 L113.371062,24.518969 C113.371062,24.621365 113.2887,24.704469 113.185562,24.704469 L113.185562,24.704469 L104.833611,24.704469 C104.424027,24.704469 104.091611,25.036143 104.091611,25.4464689 L104.091611,25.4464689 L104.091611,32.5266324 C104.091611,32.6290284 104.009249,32.7121324 103.906111,32.7121324 L103.906111,32.7121324 L100.754837,32.7121324 C100.652441,32.7121324 100.569337,32.6290284 100.569337,32.5266324 L100.569337,32.5266324 L100.569337,12.5913198 C100.569337,12.4889238 100.652441,12.4058198 100.754837,12.4058198 L100.754837,12.4058198 Z M131.330577,12.4058198 C131.433715,12.4058198 131.516077,12.4889238 131.516077,12.5913198 L131.516077,12.5913198 L131.516077,15.6246156 C131.516077,15.7270116 131.433715,15.8101156 131.330577,15.8101156 L131.330577,15.8101156 L121.122884,15.8101156 C121.020488,15.8101156 120.937384,15.8932196 120.937384,15.9956156 L120.937384,15.9956156 L120.937384,20.4988133 C120.937384,20.9091392 121.2698,21.2408132 121.679384,21.2408132 L121.679384,21.2408132 L130.030594,21.2408132 C130.133732,21.2408132 130.216094,21.3239172 130.216094,21.4263132 L130.216094,21.4263132 L130.216094,24.518969 C130.216094,24.621365 130.133732,24.704469 130.030594,24.704469 L130.030594,24.704469 L121.679384,24.704469 C121.2698,24.704469 120.937384,25.036143 120.937384,25.4464689 L120.937384,25.4464689 L120.937384,32.5266324 C120.937384,32.6290284 120.855022,32.7121324 120.751884,32.7121324 L120.751884,32.7121324 L117.599868,32.7121324 C117.497472,32.7121324 117.414368,32.6290284 117.414368,32.5266324 L117.414368,32.5266324 L117.414368,12.5913198 C117.414368,12.4889238 117.497472,12.4058198 117.599868,12.4058198 L117.599868,12.4058198 Z M148.648263,12.4053004 C148.750659,12.4053004 148.833763,12.4891464 148.833763,12.5908004 L148.833763,12.5908004 L148.833763,15.6240962 C148.833763,15.7272342 148.750659,15.8095962 148.648263,15.8095962 L148.648263,15.8095962 L137.967915,15.8095962 C137.865519,15.8095962 137.782415,15.8934422 137.782415,15.9950962 L137.782415,15.9950962 L137.782415,20.0560619 C137.782415,20.4656459 138.114831,20.7980619 138.524415,20.7980619 L138.524415,20.7980619 L147.111581,20.7980619 C147.214719,20.7980619 147.297081,20.8811658 147.297081,20.9835618 L147.297081,20.9835618 L147.297081,24.0457956 C147.297081,24.1481916 147.214719,24.2312956 147.111581,24.2312956 L147.111581,24.2312956 L138.524415,24.2312956 C138.114831,24.2312956 137.782415,24.5629696 137.782415,24.9732956 L137.782415,24.9732956 L137.782415,29.0639413 C137.782415,29.1663373 137.865519,29.2494413 137.967915,29.2494413 L137.967915,29.2494413 L148.766241,29.2494413 C148.868637,29.2494413 148.951741,29.3325452 148.951741,29.4349412 L148.951741,29.4349412 L148.951741,32.526855 C148.951741,32.628509 148.868637,32.712355 148.766241,32.712355 L148.766241,32.712355 L134.4449,32.712355 C134.342504,32.712355 134.2594,32.628509 134.2594,32.526855 L134.2594,32.526855 L134.2594,12.5908004 C134.2594,12.4891464 134.342504,12.4053004 134.4449,12.4053004 L134.4449,12.4053004 Z M189.136158,12.4056714 C189.239296,12.4056714 189.321658,12.4887754 189.321658,12.5911714 L189.321658,12.5911714 L189.321658,15.6838272 C189.321658,15.7869652 189.239296,15.8693272 189.136158,15.8693272 L189.136158,15.8693272 L182.533842,15.8693272 C182.431446,15.8693272 182.348342,15.9524312 182.348342,16.0548272 L182.348342,16.0548272 L182.348342,32.526484 C182.348342,32.62888 182.265238,32.711984 182.162842,32.711984 L182.162842,32.711984 L179.010826,32.711984 C178.90843,32.711984 178.825326,32.62888 178.825326,32.526484 L178.825326,32.526484 L178.825326,16.0548272 C178.825326,15.9524312 178.742222,15.8693272 178.639826,15.8693272 L178.639826,15.8693272 L171.978151,15.8693272 C171.875755,15.8693272 171.792651,15.7869652 171.792651,15.6838272 L171.792651,15.6838272 L171.792651,12.5911714 C171.792651,12.4887754 171.875755,12.4056714 171.978151,12.4056714 L171.978151,12.4056714 Z" id="Combined-Shape" fill="#2A3039"></path>
            <path d="M30.4590978,0.0142723269 C30.9161698,-0.0769936666 31.3435618,0.281392308 31.3435618,0.748110275 L31.3435618,0.748110275 L31.3435618,7.51292379 C31.3435618,7.74813778 31.5572578,7.91953977 31.7880197,7.87205177 C33.7535776,7.4639518 35.7903675,7.24802981 37.8753873,7.24802981 C38.9297692,7.24802981 39.9700532,7.30590581 40.9962391,7.4127538 C42.163405,7.53592579 43.3120209,7.72290978 44.4368928,7.97518976 C44.7745028,8.05087376 45.0126848,8.35657773 45.0126848,8.70309171 L45.0126848,8.70309171 L45.0126848,19.6334929 C45.0126848,20.1462149 44.5058988,20.5053429 44.0243409,20.3294889 C43.0523209,19.9733289 42.038749,19.6995309 40.9962391,19.5155149 C39.9819252,19.336693 38.9408992,19.238007 37.8753873,19.238007 C28.819278,19.238007 21.3139485,25.9924325 20.1230386,34.7265139 C20.0926166,34.9498558 20.2706966,35.1501958 20.4962645,35.1501958 L20.4962645,35.1501958 L23.7514183,35.1501958 C23.9317243,35.1501958 24.0816083,35.0196038 24.1120303,34.8407819 C25.0595642,29.2008403 29.4002639,24.6969006 34.9571015,23.5111847 C35.4238195,23.4117567 35.8667935,23.7604966 35.8667935,24.2368606 L35.8667935,24.2368606 L35.8667935,26.8383124 C35.8667935,27.1811164 35.6293535,27.4682704 35.2984215,27.5573104 C31.0616018,28.6947963 27.934814,32.568036 27.934814,37.1587897 C27.934814,41.7495434 31.0616018,45.6235251 35.2984215,46.761011 C35.6293535,46.849309 35.8667935,47.136463 35.8667935,47.479267 L35.8667935,47.479267 L35.8667935,58.1707442 C35.8667935,58.6137182 35.4787275,58.9683941 35.0394635,58.9112601 C24.2782383,57.5163002 15.9389009,48.2932409 15.9389009,37.1587897 C15.9389009,25.0627065 25.7793042,15.2215612 37.8753873,15.2215612 C38.7917572,15.2215612 39.6955132,15.2794372 40.5829451,15.3892532 C40.8033191,15.4174492 40.9962391,15.2490152 40.9962391,15.0264153 L40.9962391,15.0264153 L40.9962391,11.7905535 C40.9962391,11.5998595 40.8537751,11.4373615 40.6638231,11.4173275 C39.7481952,11.3171575 38.8177272,11.2637335 37.8753873,11.2637335 C23.5970823,11.2637335 11.9810731,22.8804847 11.9810731,37.1587897 C11.9810731,52.0603746 24.6329143,64.0629658 39.7600672,62.9863239 C52.5091103,62.0788579 62.8169735,51.7546707 63.7058895,39.0041436 C64.4649554,28.1093583 58.4406579,18.504169 49.4387145,13.9928093 C49.1886605,13.8681533 49.0291305,13.6158734 49.0291305,13.3361394 L49.0291305,13.3361394 L49.0291305,9.96894362 C49.0291305,9.70182364 49.3036705,9.51706565 49.5492725,9.62168764 C60.2585577,14.1790513 67.7868892,24.8052326 67.7868892,37.1587897 C67.7868892,51.0920647 58.2091539,62.8282779 45.2931608,66.1368556 C45.1306628,66.1784076 45.0163948,66.3223556 45.0163948,66.4907896 L45.0163948,66.4907896 L45.0163948,73.7312251 C45.0163948,74.0925791 44.7581788,74.406445 44.4035028,74.468773 C43.2845669,74.663177 42.150049,74.810093 40.9999491,74.904327 C39.9693112,74.988915 38.9275432,75.034177 37.8753873,75.034177 C16.9910568,75.034177 -2.55795385e-13,58.0431202 -2.55795385e-13,37.1587897 C-2.55795385e-13,19.9332609 11.5588752,5.35889795 27.3271161,0.779274273 C28.354044,0.481732294 29.3987799,0.225742312 30.4590978,0.0142723269 Z M7.69231345,39.1666415 L4.47871168,39.1666415 C4.2620477,39.1666415 4.08841971,39.3521415 4.10325971,39.5680635 C5.34314162,57.1178463 20.0161906,71.0177313 37.8753873,71.0177313 C38.8125332,71.0177313 39.7407752,70.9769213 40.6586291,70.9019793 C40.8522911,70.8856553 40.9999491,70.7224153 40.9999491,70.5287533 L40.9999491,70.5287533 L40.9999491,67.3114415 C40.9999491,67.0940356 40.8151911,66.9270856 40.5985271,66.9463776 C39.7014492,67.0272556 38.7932412,67.0695496 37.8753873,67.0695496 C22.1731844,67.0695496 9.26015934,54.9066864 8.05811943,39.5072195 C8.04253743,39.3157835 7.88523344,39.1666415 7.69231345,39.1666415 L7.69231345,39.1666415 Z M23.7514183,39.1666415 L20.4962645,39.1666415 C20.2714386,39.1666415 20.0933586,39.3669815 20.1237806,39.5895815 C21.0119545,46.1021151 25.4105302,51.5083267 31.3443038,53.8396905 C31.5861958,53.9346665 31.8510897,53.7499085 31.8510897,53.4894665 L31.8510897,53.4894665 L31.8510897,50.1949868 C31.8510897,49.9167368 31.6923017,49.6674248 31.4459578,49.5390588 C27.633562,47.551983 24.8473522,43.8583072 24.1120303,39.4760555 C24.0816083,39.2979755 23.9317243,39.1666415 23.7514183,39.1666415 L23.7514183,39.1666415 Z M39.8833134,24.235525 C39.8833134,23.756193 40.3307393,23.4119051 40.7989413,23.5128171 C47.0962949,24.859547 51.8332225,30.4653566 51.8332225,37.1589381 C51.8332225,43.8525196 47.0962949,49.4575872 40.7989413,50.8058011 C40.3307393,50.9052291 39.8833134,50.5616831 39.8833134,50.0816092 L39.8833134,50.0816092 L39.8833134,47.4779314 C39.8833134,47.1343854 40.1214954,46.8479734 40.4531693,46.7589334 C43.9027271,45.8321755 46.6177049,43.0912277 47.5058788,39.6260879 C47.5659808,39.3938419 47.3819648,39.1667899 47.1408149,39.1667899 L47.1408149,39.1667899 L43.7773291,39.1667899 C43.6267031,39.1667899 43.4953691,39.2610239 43.4389771,39.4012619 C42.5493192,41.6005498 40.3915833,43.1580077 37.8754615,43.1580077 C34.1713978,43.1580077 31.24124,39.7841339 31.9951119,35.9479942 C32.4521839,33.6225663 34.3220238,31.7460485 36.6474516,31.2815565 C39.6696174,30.6790525 42.4061132,32.3641344 43.4389771,34.9158722 C43.4953691,35.0561102 43.6274451,35.1503442 43.7788131,35.1503442 L43.7788131,35.1503442 L47.1408149,35.1503442 C47.3819648,35.1503442 47.5659808,34.9232922 47.5058788,34.6910463 C46.6177049,31.2259065 43.9027271,28.4864427 40.4531693,27.5589428 C40.1214954,27.4706448 39.8833134,27.1827488 39.8833134,26.8392028 L39.8833134,26.8392028 Z M37.8754615,35.1755722 C36.7817536,35.1755722 35.8920957,36.0652302 35.8920957,37.1589381 C35.8920957,38.252646 36.7817536,39.1415619 37.8754615,39.1415619 C38.9691694,39.1415619 39.8588274,38.252646 39.8588274,37.1589381 C39.8588274,36.0652302 38.9691694,35.1755722 37.8754615,35.1755722 Z M27.3271161,5.50655594 C27.3271161,5.25056596 27.0726101,5.06729197 26.8314601,5.15113796 C14.293887,9.48886965 5.07379564,20.9980308 4.10177571,34.7487739 C4.08693571,34.9646958 4.2605637,35.1501958 4.47648568,35.1501958 L4.47648568,35.1501958 L7.69602345,35.1501958 C7.88820144,35.1501958 8.04550543,35.0025378 8.06034543,34.8103599 C8.97152136,23.1379587 16.6096688,13.3250094 27.0933861,9.25959167 C27.2343661,9.20542567 27.3271161,9.07038168 27.3271161,8.91901369 L27.3271161,8.91901369 Z" id="Combined-Shape" fill="#5158FA"></path>
        </g>
    </g>
</svg>